# This file uses centimeters as units for non-parametric coordinates.

mtllib carre intersection.mtl
g default
v -3520.763701 110.539170 5258.816495
v -3520.763701 110.539170 5201.243663
v -3466.573372 110.539170 5258.816495
v -3466.573372 110.539170 5201.243663
v -3466.573372 110.539170 5228.254807
v -3520.763701 110.539170 5228.254807
v -3466.573372 110.539170 5231.805318
v -3520.763701 110.539170 5231.805318
v -3495.221232 110.539170 5201.243663
v -3495.221232 110.539170 5228.254807
v -3495.221232 110.539170 5231.805318
v -3495.221232 110.539170 5258.816495
v -3492.115624 110.539170 5201.243663
v -3492.115624 110.539170 5228.254807
v -3492.115624 110.539170 5231.805318
v -3492.115624 110.539170 5258.816495
v -3466.573372 110.539170 5235.664029
v -3492.115624 110.539170 5235.664029
v -3495.221232 110.539170 5235.664029
v -3520.763701 110.539170 5235.664029
v -3466.573372 110.539170 5239.522773
v -3492.115624 110.539170 5239.522773
v -3495.221232 110.539170 5239.522773
v -3520.763701 110.539170 5239.522773
v -3466.573372 110.539170 5243.381551
v -3492.115624 110.539170 5243.381551
v -3495.221232 110.539170 5243.381551
v -3520.763701 110.539170 5243.381551
v -3466.573372 110.539170 5247.240329
v -3492.115624 110.539170 5247.240329
v -3495.221232 110.539170 5247.240329
v -3520.763701 110.539170 5247.240329
v -3466.573372 110.539170 5251.099073
v -3492.115624 110.539170 5251.099073
v -3495.221232 110.539170 5251.099073
v -3520.763701 110.539170 5251.099073
v -3466.573372 110.539170 5254.957751
v -3492.115624 110.539170 5254.957751
v -3495.221232 110.539170 5254.957751
v -3520.763701 110.539170 5254.957751
v -3466.573372 110.539170 5205.102407
v -3492.115624 110.539170 5205.102407
v -3495.221232 110.539170 5205.102407
v -3520.763701 110.539170 5205.102407
v -3466.573372 110.539170 5208.961152
v -3492.115624 110.539170 5208.961152
v -3495.221232 110.539170 5208.961152
v -3520.763701 110.539170 5208.961152
v -3466.573372 110.539170 5212.819930
v -3492.115624 110.539170 5212.819930
v -3495.221232 110.539170 5212.819930
v -3520.763701 110.539170 5212.819930
v -3466.573372 110.539170 5216.678641
v -3492.115624 110.539170 5216.678641
v -3495.221232 110.539170 5216.678641
v -3520.763701 110.539170 5216.678641
v -3466.573372 110.539170 5220.537318
v -3492.115624 110.539170 5220.537318
v -3495.221232 110.539170 5220.537318
v -3520.763701 110.539170 5220.537318
v -3466.573372 110.539170 5224.396096
v -3492.115624 110.539170 5224.396096
v -3495.221232 110.539170 5224.396096
v -3520.763701 110.539170 5224.396096
vt 0.588841 0.965198
vt 0.588902 0.972973
vt 0.537435 0.973376
vt 0.537374 0.965601
vt 0.595099 0.965149
vt 0.595160 0.972924
vt 0.588781 0.957423
vt 0.537313 0.957826
vt 0.646567 0.964745
vt 0.646628 0.972521
vt 0.595038 0.957374
vt 0.588720 0.949647
vt 0.537252 0.950051
vt 0.646506 0.956970
vt 0.594977 0.949598
vt 0.588659 0.941872
vt 0.537191 0.942275
vt 0.646445 0.949195
vt 0.594916 0.941823
vt 0.588598 0.934096
vt 0.537130 0.934500
vt 0.646384 0.941419
vt 0.594855 0.934047
vt 0.588537 0.926321
vt 0.537069 0.926724
vt 0.646323 0.933644
vt 0.594794 0.926272
vt 0.588476 0.918546
vt 0.537008 0.918949
vt 0.646262 0.925869
vt 0.594733 0.918497
vt 0.588420 0.911392
vt 0.536952 0.911795
vt 0.646201 0.918093
vt 0.594677 0.911343
vt 0.588359 0.903616
vt 0.536891 0.904020
vt 0.646145 0.910939
vt 0.594617 0.903567
vt 0.588298 0.895841
vt 0.536830 0.896244
vt 0.646084 0.903164
vt 0.594555 0.895792
vt 0.588237 0.888066
vt 0.536769 0.888469
vt 0.646023 0.895388
vt 0.594495 0.888017
vt 0.588176 0.880290
vt 0.536709 0.880694
vt 0.645962 0.887613
vt 0.594434 0.880241
vt 0.588115 0.872515
vt 0.536647 0.872918
vt 0.645902 0.879838
vt 0.594373 0.872466
vt 0.588054 0.864740
vt 0.536587 0.865143
vt 0.645841 0.872063
vt 0.594312 0.864691
vt 0.587993 0.856964
vt 0.536526 0.857368
vt 0.645779 0.864287
vt 0.594251 0.856915
vt 0.645719 0.856512
vn 0.000000 1.000000 0.000000
vn 0.000000 1.000000 0.000000
vn 0.000000 1.000000 0.000000
vn 0.000000 1.000000 0.000000
vn 0.000000 1.000000 0.000000
vn 0.000000 1.000000 0.000000
vn 0.000000 1.000000 0.000000
vn 0.000000 1.000000 0.000000
vn 0.000000 1.000000 0.000000
vn 0.000000 1.000000 0.000000
vn 0.000000 1.000000 0.000000
vn 0.000000 1.000000 0.000000
vn 0.000000 1.000000 0.000000
vn 0.000000 1.000000 0.000000
vn 0.000000 1.000000 0.000000
vn 0.000000 1.000000 0.000000
vn 0.000000 1.000000 0.000000
vn 0.000000 1.000000 0.000000
vn 0.000000 1.000000 0.000000
vn 0.000000 1.000000 0.000000
vn 0.000000 1.000000 0.000000
vn 0.000000 1.000000 0.000000
vn 0.000000 1.000000 0.000000
vn 0.000000 1.000000 0.000000
vn 0.000000 1.000000 0.000000
vn 0.000000 1.000000 0.000000
vn 0.000000 1.000000 0.000000
vn 0.000000 1.000000 0.000000
vn 0.000000 1.000000 0.000000
vn 0.000000 1.000000 0.000000
vn 0.000000 1.000000 0.000000
vn 0.000000 1.000000 0.000000
vn 0.000000 1.000000 0.000000
vn 0.000000 1.000000 0.000000
vn 0.000000 1.000000 0.000000
vn 0.000000 1.000000 0.000000
vn 0.000000 1.000000 0.000000
vn 0.000000 1.000000 0.000000
vn 0.000000 1.000000 0.000000
vn 0.000000 1.000000 0.000000
vn 0.000000 1.000000 0.000000
vn 0.000000 1.000000 0.000000
vn 0.000000 1.000000 0.000000
vn 0.000000 1.000000 0.000000
vn 0.000000 1.000000 0.000000
vn 0.000000 1.000000 0.000000
vn 0.000000 1.000000 0.000000
vn 0.000000 1.000000 0.000000
vn 0.000000 1.000000 0.000000
vn 0.000000 1.000000 0.000000
vn 0.000000 1.000000 0.000000
vn 0.000000 1.000000 0.000000
vn 0.000000 1.000000 0.000000
vn 0.000000 1.000000 0.000000
vn 0.000000 1.000000 0.000000
vn 0.000000 1.000000 0.000000
vn 0.000000 1.000000 0.000000
vn 0.000000 1.000000 0.000000
vn 0.000000 1.000000 0.000000
vn 0.000000 1.000000 0.000000
vn 0.000000 1.000000 0.000000
vn 0.000000 1.000000 0.000000
vn 0.000000 1.000000 0.000000
vn 0.000000 1.000000 0.000000
vn 0.000000 1.000000 0.000000
vn 0.000000 1.000000 0.000000
vn 0.000000 1.000000 0.000000
vn 0.000000 1.000000 0.000000
vn 0.000000 1.000000 0.000000
vn 0.000000 1.000000 0.000000
vn 0.000000 1.000000 0.000000
vn 0.000000 1.000000 0.000000
vn 0.000000 1.000000 0.000000
vn 0.000000 1.000000 0.000000
vn 0.000000 1.000000 0.000000
vn 0.000000 1.000000 0.000000
vn 0.000000 1.000000 0.000000
vn 0.000000 1.000000 0.000000
vn 0.000000 1.000000 0.000000
vn 0.000000 1.000000 0.000000
vn 0.000000 1.000000 0.000000
vn 0.000000 1.000000 0.000000
vn 0.000000 1.000000 0.000000
vn 0.000000 1.000000 0.000000
vn 0.000000 1.000000 0.000000
vn 0.000000 1.000000 0.000000
vn 0.000000 1.000000 0.000000
vn 0.000000 1.000000 0.000000
vn 0.000000 1.000000 0.000000
vn 0.000000 1.000000 0.000000
vn 0.000000 1.000000 0.000000
vn 0.000000 1.000000 0.000000
vn 0.000000 1.000000 0.000000
vn 0.000000 1.000000 0.000000
vn 0.000000 1.000000 0.000000
vn 0.000000 1.000000 0.000000
vn 0.000000 1.000000 0.000000
vn 0.000000 1.000000 0.000000
vn 0.000000 1.000000 0.000000
vn 0.000000 1.000000 0.000000
vn 0.000000 1.000000 0.000000
vn 0.000000 1.000000 0.000000
vn 0.000000 1.000000 0.000000
vn 0.000000 1.000000 0.000000
vn 0.000000 1.000000 0.000000
vn 0.000000 1.000000 0.000000
vn 0.000000 1.000000 0.000000
vn 0.000000 1.000000 0.000000
vn 0.000000 1.000000 0.000000
vn 0.000000 1.000000 0.000000
vn 0.000000 1.000000 0.000000
vn 0.000000 1.000000 0.000000
vn 0.000000 1.000000 0.000000
vn 0.000000 1.000000 0.000000
vn 0.000000 1.000000 0.000000
vn 0.000000 1.000000 0.000000
vn 0.000000 1.000000 0.000000
vn 0.000000 1.000000 0.000000
vn 0.000000 1.000000 0.000000
vn 0.000000 1.000000 0.000000
vn 0.000000 1.000000 0.000000
vn 0.000000 1.000000 0.000000
vn 0.000000 1.000000 0.000000
vn 0.000000 1.000000 0.000000
vn 0.000000 1.000000 0.000000
vn 0.000000 1.000000 0.000000
vn 0.000000 1.000000 0.000000
vn 0.000000 1.000000 0.000000
vn 0.000000 1.000000 0.000000
vn 0.000000 1.000000 0.000000
vn 0.000000 1.000000 0.000000
vn 0.000000 1.000000 0.000000
vn 0.000000 1.000000 0.000000
vn 0.000000 1.000000 0.000000
vn 0.000000 1.000000 0.000000
vn 0.000000 1.000000 0.000000
vn 0.000000 1.000000 0.000000
vn 0.000000 1.000000 0.000000
vn 0.000000 1.000000 0.000000
vn 0.000000 1.000000 0.000000
vn 0.000000 1.000000 0.000000
vn 0.000000 1.000000 0.000000
vn 0.000000 1.000000 0.000000
vn 0.000000 1.000000 0.000000
vn 0.000000 1.000000 0.000000
vn 0.000000 1.000000 0.000000
vn 0.000000 1.000000 0.000000
vn 0.000000 1.000000 0.000000
vn 0.000000 1.000000 0.000000
vn 0.000000 1.000000 0.000000
vn 0.000000 1.000000 0.000000
vn 0.000000 1.000000 0.000000
vn 0.000000 1.000000 0.000000
vn 0.000000 1.000000 0.000000
vn 0.000000 1.000000 0.000000
vn 0.000000 1.000000 0.000000
vn 0.000000 1.000000 0.000000
vn 0.000000 1.000000 0.000000
vn 0.000000 1.000000 0.000000
vn 0.000000 1.000000 0.000000
vn 0.000000 1.000000 0.000000
vn 0.000000 1.000000 0.000000
vn 0.000000 1.000000 0.000000
vn 0.000000 1.000000 0.000000
vn 0.000000 1.000000 0.000000
vn 0.000000 1.000000 0.000000
vn 0.000000 1.000000 0.000000
vn 0.000000 1.000000 0.000000
vn 0.000000 1.000000 0.000000
vn 0.000000 1.000000 0.000000
vn 0.000000 1.000000 0.000000
vn 0.000000 1.000000 0.000000
vn 0.000000 1.000000 0.000000
vn 0.000000 1.000000 0.000000
vn 0.000000 1.000000 0.000000
vn 0.000000 1.000000 0.000000
vn 0.000000 1.000000 0.000000
vn 0.000000 1.000000 0.000000
vn 0.000000 1.000000 0.000000
vn 0.000000 1.000000 0.000000
s off
g sol_route:pPlane1
usemtl sol_route:initialShadingGroup
f 38/1/1 16/2/2 3/3/3 37/4/4
f 62/36/5 14/32/6 5/33/7 61/37/8
f 14/32/9 15/28/10 7/29/11 5/33/12
f 64/42/13 6/38/14 10/35/15 63/39/16
f 6/38/17 8/34/18 11/31/19 10/35/20
f 40/9/21 1/10/22 12/6/23 39/5/24
f 63/39/25 10/35/26 14/32/27 62/36/28
f 10/35/29 11/31/30 15/28/31 14/32/32
f 39/5/33 12/6/34 16/2/35 38/1/36
f 15/28/37 18/24/38 17/25/39 7/29/40
f 11/31/41 19/27/42 18/24/43 15/28/44
f 8/34/45 20/30/46 19/27/47 11/31/48
f 18/24/49 22/20/50 21/21/51 17/25/52
f 19/27/53 23/23/54 22/20/55 18/24/56
f 20/30/57 24/26/58 23/23/59 19/27/60
f 22/20/61 26/16/62 25/17/63 21/21/64
f 23/23/65 27/19/66 26/16/67 22/20/68
f 24/26/69 28/22/70 27/19/71 23/23/72
f 26/16/73 30/12/74 29/13/75 25/17/76
f 27/19/77 31/15/78 30/12/79 26/16/80
f 28/22/81 32/18/82 31/15/83 27/19/84
f 30/12/85 34/7/86 33/8/87 29/13/88
f 31/15/89 35/11/90 34/7/91 30/12/92
f 32/18/93 36/14/94 35/11/95 31/15/96
f 34/7/97 38/1/98 37/4/99 33/8/100
f 35/11/101 39/5/102 38/1/103 34/7/104
f 36/14/105 40/9/106 39/5/107 35/11/108
f 13/60/109 42/56/110 41/57/111 4/61/112
f 9/63/113 43/59/114 42/56/115 13/60/116
f 2/64/117 44/62/118 43/59/119 9/63/120
f 42/56/121 46/52/122 45/53/123 41/57/124
f 43/59/125 47/55/126 46/52/127 42/56/128
f 44/62/129 48/58/130 47/55/131 43/59/132
f 46/52/133 50/48/134 49/49/135 45/53/136
f 47/55/137 51/51/138 50/48/139 46/52/140
f 48/58/141 52/54/142 51/51/143 47/55/144
f 50/48/145 54/44/146 53/45/147 49/49/148
f 51/51/149 55/47/150 54/44/151 50/48/152
f 52/54/153 56/50/154 55/47/155 51/51/156
f 54/44/157 58/40/158 57/41/159 53/45/160
f 55/47/161 59/43/162 58/40/163 54/44/164
f 56/50/165 60/46/166 59/43/167 55/47/168
f 58/40/169 62/36/170 61/37/171 57/41/172
f 59/43/173 63/39/174 62/36/175 58/40/176
f 60/46/177 64/42/178 63/39/179 59/43/180
