# This file uses centimeters as units for non-parametric coordinates.

mtllib egout_vide2.0.mtl
g default
v 2.259402 -0.159223 -0.740715
v 1.921962 -0.159223 -1.402979
v 0.000000 -0.025075 -0.006592
v 1.396387 -0.159223 -1.928554
v 0.734124 -0.159223 -2.265993
v 0.000000 -0.159223 -2.382267
v -0.734124 -0.159223 -2.265993
v -1.396387 -0.159223 -1.928553
v -1.921962 -0.159223 -1.402978
v -2.259401 -0.159223 -0.740716
v -2.375675 -0.159223 -0.006591
v -2.259401 -0.159223 0.727533
v -1.921962 -0.159223 1.389796
v -1.396387 -0.159223 1.915370
v -0.734124 -0.159223 2.252810
v -0.000000 -0.159223 2.369083
v 0.734124 -0.159223 2.252810
v 1.396386 -0.159223 1.915370
v 1.921961 -0.159223 1.389796
v 2.259401 -0.159223 0.727533
v 2.375675 -0.159223 -0.006591
vt 0.973634 0.653893
vt 0.902897 0.792722
vt 0.500000 0.500000
vt 0.792722 0.902897
vt 0.998008 0.500000
vt 0.653893 0.973634
vt 0.973634 0.346107
vt 0.500000 0.998008
vt 0.902897 0.207278
vt 0.346107 0.973634
vt 0.792722 0.097103
vt 0.207278 0.902897
vt 0.653893 0.026366
vt 0.097103 0.792722
vt 0.500000 0.001992
vt 0.026366 0.653893
vt 0.346107 0.026366
vt 0.001992 0.500000
vt 0.207278 0.097103
vt 0.026366 0.346107
vt 0.097103 0.207278
vn 0.053618 0.998410 -0.017421
vn 0.045610 0.998410 -0.033138
vn 0.000000 1.000000 0.000000
vn 0.033138 0.998409 -0.045610
vn 0.017422 0.998410 -0.053618
vn -0.000000 0.998410 -0.056378
vn -0.017422 0.998410 -0.053618
vn -0.033138 0.998410 -0.045610
vn -0.045610 0.998409 -0.033138
vn -0.053618 0.998410 -0.017422
vn -0.056378 0.998410 0.000000
vn -0.053618 0.998410 0.017422
vn -0.045610 0.998409 0.033138
vn -0.033138 0.998409 0.045610
vn -0.017422 0.998410 0.053618
vn -0.000000 0.998410 0.056378
vn 0.017422 0.998410 0.053618
vn 0.033138 0.998409 0.045610
vn 0.045610 0.998410 0.033138
vn 0.053618 0.998410 0.017421
vn 0.056378 0.998410 -0.000000
s 1
g polySurface2 pCylinder2
usemtl lambert2SG
f 1/1/1 2/2/2 3/3/3
f 2/2/2 4/4/4 3/3/3
f 4/4/4 5/6/5 3/3/3
f 5/6/5 6/8/6 3/3/3
f 6/8/6 7/10/7 3/3/3
f 7/10/7 8/12/8 3/3/3
f 8/12/8 9/14/9 3/3/3
f 9/14/9 10/16/10 3/3/3
f 10/16/10 11/18/11 3/3/3
f 11/18/11 12/20/12 3/3/3
f 12/20/12 13/21/13 3/3/3
f 13/21/13 14/19/14 3/3/3
f 14/19/14 15/17/15 3/3/3
f 15/17/15 16/15/16 3/3/3
f 16/15/16 17/13/17 3/3/3
f 17/13/17 18/11/18 3/3/3
f 18/11/18 19/9/19 3/3/3
f 19/9/19 20/7/20 3/3/3
f 20/7/20 21/5/21 3/3/3
f 21/5/21 1/1/1 3/3/3
g default
v 2.330090 -0.139913 -0.763683
v 1.982093 -0.139913 -1.446666
v 1.440075 -0.139913 -1.988684
v 0.757092 -0.139913 -2.336681
v 0.000000 -0.139913 -2.456592
v -0.757092 -0.139913 -2.336680
v -1.440074 -0.139913 -1.988684
v -1.982092 -0.139913 -1.446666
v -2.330089 -0.139913 -0.763683
v -2.450001 -0.139913 -0.006591
v -2.330089 -0.139913 0.750501
v -1.982092 -0.139913 1.433483
v -1.440074 -0.139913 1.975501
v -0.757092 -0.139913 2.323498
v -0.000000 -0.139913 2.443409
v 0.757092 -0.139913 2.323498
v 1.440074 -0.139913 1.975501
v 1.982092 -0.139913 1.433483
v 2.330089 -0.139913 0.750500
v 2.450000 -0.139913 -0.006591
v 2.330090 0.139913 -0.763683
v 1.982093 0.139913 -1.446666
v 1.440075 0.139913 -1.988684
v 0.757092 0.139913 -2.336681
v 0.000000 0.139913 -2.456592
v -0.757092 0.139913 -2.336680
v -1.440074 0.139913 -1.988684
v -1.982092 0.139913 -1.446666
v -2.330089 0.139913 -0.763683
v -2.450001 0.139913 -0.006591
v -2.330089 0.139913 0.750501
v -1.982092 0.139913 1.433483
v -1.440074 0.139913 1.975501
v -0.757092 0.139913 2.323498
v -0.000000 0.139913 2.443409
v 0.757092 0.139913 2.323498
v 1.440074 0.139913 1.975501
v 1.982092 0.139913 1.433483
v 2.330089 0.139913 0.750500
v 2.450000 0.139913 -0.006591
v 2.069779 0.149215 -0.679103
v 1.760659 0.149215 -1.285785
v 1.279194 0.149215 -1.767250
v 0.672512 0.149215 -2.076370
v 0.000000 0.149215 -2.182885
v -0.672512 0.149215 -2.076369
v -1.279193 0.149215 -1.767250
v -1.760658 0.149215 -1.285785
v -2.069778 0.149215 -0.679103
v -2.176293 0.149215 -0.006591
v -2.069778 0.149215 0.665921
v -1.760658 0.149215 1.272602
v -1.279193 0.149215 1.754067
v -0.672512 0.149215 2.063186
v -0.000000 0.149215 2.169702
v 0.672511 0.149215 2.063186
v 1.279193 0.149215 1.754067
v 1.760658 0.149215 1.272602
v 2.069777 0.149215 0.665920
v 2.176293 0.149215 -0.006592
v 2.069779 -0.156258 -0.679103
v 1.760659 -0.156258 -1.285785
v 1.279194 -0.156258 -1.767250
v 0.672512 -0.156258 -2.076370
v 0.000000 -0.156258 -2.182885
v -0.672512 -0.156258 -2.076369
v -1.279193 -0.156258 -1.767250
v -1.760658 -0.156258 -1.285785
v -2.069778 -0.156258 -0.679103
v -2.176293 -0.156258 -0.006591
v -2.069778 -0.156258 0.665921
v -1.760658 -0.156258 1.272602
v -1.279193 -0.156258 1.754067
v -0.672512 -0.156258 2.063186
v -0.000000 -0.156258 2.169702
v 0.672511 -0.156258 2.063186
v 1.279193 -0.156258 1.754067
v 1.760658 -0.156258 1.272602
v 2.069777 -0.156258 0.665920
v 2.176293 -0.156258 -0.006592
vt 0.818379 0.749577
vt 0.818379 0.688104
vt 0.998392 0.688104
vt 0.998392 0.749577
vt 0.818379 0.639319
vt 0.998392 0.639319
vt 0.818379 0.817720
vt 0.998392 0.817720
vt 0.818379 0.885863
vt 0.998392 0.885863
vt 0.818379 0.947336
vt 0.998392 0.947336
vt 0.818379 0.996121
vt 0.998392 0.996121
vt 0.813191 0.310393
vt 0.813191 0.248921
vt 0.993204 0.248921
vt 0.993204 0.310393
vt 0.813191 0.180778
vt 0.993204 0.180778
vt 0.813191 0.359179
vt 0.993204 0.359179
vt 0.813191 0.112635
vt 0.993204 0.112635
vt 0.813191 0.051162
vt 0.993204 0.051162
vt 0.813191 0.002377
vt 0.993204 0.002377
vt 0.599879 0.665910
vt 0.599879 0.720515
vt 0.403366 0.720515
vt 0.403366 0.665910
vt 0.599879 0.763850
vt 0.403366 0.763850
vt 0.599879 0.605380
vt 0.403366 0.605380
vt 0.599879 0.544850
vt 0.403366 0.544850
vt 0.599879 0.490245
vt 0.403366 0.490245
vt 0.599879 0.446910
vt 0.403366 0.446910
vt 0.397392 0.490245
vt 0.397392 0.544850
vt 0.200880 0.544850
vt 0.200880 0.490245
vt 0.397392 0.605380
vt 0.200880 0.605380
vt 0.397392 0.446910
vt 0.200880 0.446910
vt 0.397392 0.665910
vt 0.200880 0.665910
vt 0.397392 0.720515
vt 0.200880 0.720515
vt 0.397392 0.763850
vt 0.200880 0.763850
vt 0.264179 0.180076
vt 0.245561 0.216616
vt 0.233715 0.208009
vt 0.250253 0.175551
vt 0.216564 0.245614
vt 0.207957 0.233767
vt 0.270594 0.139572
vt 0.255951 0.139572
vt 0.180024 0.264231
vt 0.175499 0.250305
vt 0.264179 0.099068
vt 0.250253 0.103593
vt 0.139520 0.270647
vt 0.139520 0.256003
vt 0.245561 0.062529
vt 0.233715 0.071136
vt 0.099016 0.264231
vt 0.103541 0.250305
vt 0.216564 0.033531
vt 0.207956 0.045377
vt 0.062476 0.245614
vt 0.071084 0.233767
vt 0.180024 0.014913
vt 0.175499 0.028840
vt 0.033479 0.216616
vt 0.045325 0.208009
vt 0.139520 0.008498
vt 0.139520 0.023141
vt 0.014861 0.180076
vt 0.028787 0.175551
vt 0.099016 0.014913
vt 0.103541 0.028840
vt 0.008446 0.139572
vt 0.023089 0.139572
vt 0.062476 0.033531
vt 0.071084 0.045377
vt 0.014861 0.099068
vt 0.028787 0.103593
vt 0.033479 0.062529
vt 0.045325 0.071136
vt 0.194905 0.446910
vt 0.194905 0.508382
vt 0.014893 0.508382
vt 0.014893 0.446910
vt 0.194905 0.576525
vt 0.014893 0.576525
vt 0.194905 0.644668
vt 0.014893 0.644668
vt 0.194905 0.706141
vt 0.014893 0.706141
vt 0.001940 0.969259
vt 0.001940 0.907787
vt 0.181952 0.907787
vt 0.181952 0.969259
vt 0.001940 0.839643
vt 0.181952 0.839643
vt 0.001940 0.771501
vt 0.181952 0.771501
vt 0.001940 0.710028
vt 0.181952 0.710028
vt 0.384633 0.767737
vt 0.384633 0.822342
vt 0.188121 0.822342
vt 0.188121 0.767737
vt 0.384633 0.882872
vt 0.188121 0.882872
vt 0.384633 0.943403
vt 0.188121 0.943403
vt 0.384633 0.998008
vt 0.188121 0.998008
vt 0.391194 0.998008
vt 0.391194 0.943403
vt 0.587706 0.943403
vt 0.587706 0.998008
vt 0.391194 0.882872
vt 0.587706 0.882872
vt 0.391194 0.822342
vt 0.587706 0.822342
vt 0.391194 0.767737
vt 0.587706 0.767737
vn 0.951057 0.000000 -0.309016
vn 0.809017 0.000000 -0.587785
vn 0.809017 0.000000 -0.587785
vn 0.951057 0.000000 -0.309016
vn 0.587785 0.000000 -0.809017
vn 0.587785 0.000000 -0.809017
vn 0.309017 0.000000 -0.951057
vn 0.309017 0.000000 -0.951057
vn -0.000001 0.000000 -1.000000
vn -0.000001 0.000000 -1.000000
vn -0.309017 0.000000 -0.951056
vn -0.309017 0.000000 -0.951056
vn -0.587785 0.000000 -0.809017
vn -0.587785 0.000000 -0.809017
vn -0.809017 0.000000 -0.587785
vn -0.809017 0.000000 -0.587785
vn -0.951057 0.000000 -0.309017
vn -0.951057 0.000000 -0.309017
vn -1.000000 0.000000 0.000000
vn -1.000000 0.000000 0.000000
vn -0.951057 0.000000 0.309017
vn -0.951057 0.000000 0.309017
vn -0.809017 0.000000 0.587785
vn -0.809017 0.000000 0.587785
vn -0.587785 0.000000 0.809017
vn -0.587785 0.000000 0.809017
vn -0.309017 0.000000 0.951057
vn -0.309017 0.000000 0.951057
vn 0.000000 0.000000 1.000000
vn 0.000000 0.000000 1.000000
vn 0.309017 0.000000 0.951057
vn 0.309017 0.000000 0.951057
vn 0.587785 0.000000 0.809017
vn 0.587785 0.000000 0.809017
vn 0.809017 0.000000 0.587785
vn 0.809017 0.000000 0.587785
vn 0.951057 0.000000 0.309017
vn 0.951057 0.000000 0.309017
vn 1.000000 0.000000 0.000001
vn 1.000000 0.000000 0.000001
vn 0.032306 0.999423 -0.010497
vn 0.027481 0.999423 -0.019966
vn 0.027481 0.999423 -0.019966
vn 0.032306 0.999423 -0.010497
vn 0.019966 0.999423 -0.027481
vn 0.019966 0.999423 -0.027481
vn 0.010497 0.999423 -0.032306
vn 0.010497 0.999423 -0.032306
vn -0.000000 0.999423 -0.033969
vn -0.000000 0.999423 -0.033969
vn -0.010497 0.999423 -0.032306
vn -0.010497 0.999423 -0.032306
vn -0.019966 0.999423 -0.027481
vn -0.019966 0.999423 -0.027481
vn -0.027481 0.999423 -0.019966
vn -0.027481 0.999423 -0.019966
vn -0.032306 0.999423 -0.010497
vn -0.032306 0.999423 -0.010497
vn -0.033969 0.999423 -0.000000
vn -0.033969 0.999423 -0.000000
vn -0.032306 0.999423 0.010497
vn -0.032306 0.999423 0.010497
vn -0.027481 0.999423 0.019966
vn -0.027481 0.999423 0.019966
vn -0.019966 0.999423 0.027481
vn -0.019966 0.999423 0.027481
vn -0.010497 0.999423 0.032306
vn -0.010497 0.999423 0.032306
vn 0.000000 0.999423 0.033969
vn 0.000000 0.999423 0.033969
vn 0.010497 0.999423 0.032306
vn 0.010497 0.999423 0.032306
vn 0.019966 0.999423 0.027481
vn 0.019966 0.999423 0.027481
vn 0.027481 0.999423 0.019966
vn 0.027481 0.999423 0.019966
vn 0.032306 0.999423 0.010497
vn 0.032306 0.999423 0.010497
vn 0.033969 0.999423 0.000000
vn 0.033969 0.999423 0.000000
vn -0.951057 0.000000 0.309016
vn -0.809017 0.000000 0.587785
vn -0.809017 0.000000 0.587785
vn -0.951057 0.000000 0.309016
vn -0.587785 0.000000 0.809017
vn -0.587785 0.000000 0.809017
vn -0.309017 0.000000 0.951057
vn -0.309017 0.000000 0.951057
vn 0.000001 0.000000 1.000000
vn 0.000001 0.000000 1.000000
vn 0.309017 0.000000 0.951056
vn 0.309017 0.000000 0.951056
vn 0.587785 0.000000 0.809017
vn 0.587785 0.000000 0.809017
vn 0.809017 0.000000 0.587785
vn 0.809017 0.000000 0.587785
vn 0.951057 0.000000 0.309017
vn 0.951057 0.000000 0.309017
vn 1.000000 0.000000 -0.000000
vn 1.000000 0.000000 -0.000000
vn 0.951057 0.000000 -0.309017
vn 0.951057 0.000000 -0.309017
vn 0.809017 0.000000 -0.587785
vn 0.809017 0.000000 -0.587785
vn 0.587785 0.000000 -0.809017
vn 0.587785 0.000000 -0.809017
vn 0.309017 0.000000 -0.951057
vn 0.309017 0.000000 -0.951057
vn -0.000000 0.000000 -1.000000
vn -0.000000 0.000000 -1.000000
vn -0.309017 0.000000 -0.951057
vn -0.309017 0.000000 -0.951057
vn -0.587785 0.000000 -0.809017
vn -0.587785 0.000000 -0.809017
vn -0.809017 0.000000 -0.587785
vn -0.809017 0.000000 -0.587785
vn -0.951057 0.000000 -0.309017
vn -0.951057 0.000000 -0.309017
vn -1.000000 0.000000 -0.000001
vn -1.000000 0.000000 -0.000001
s 1
g pCylinder2 polySurface1
usemtl initialShadingGroup
f 22/22/22 23/23/23 43/24/24 42/25/25
f 23/23/23 24/26/26 44/27/27 43/24/24
f 24/118/26 25/119/28 45/120/29 44/121/27
f 25/119/28 26/122/30 46/123/31 45/120/29
f 26/122/30 27/124/32 47/125/33 46/123/31
f 27/124/32 28/126/34 48/127/35 47/125/33
f 28/42/34 29/36/36 49/39/37 48/43/35
f 29/36/36 30/37/38 50/38/39 49/39/37
f 30/37/38 31/40/40 51/41/41 50/38/39
f 31/40/40 32/44/42 52/45/43 51/41/41
f 32/44/42 33/46/44 53/47/45 52/45/43
f 33/46/44 34/48/46 54/49/47 53/47/45
f 34/128/46 35/129/48 55/130/49 54/131/47
f 35/129/48 36/132/50 56/133/51 55/130/49
f 36/132/50 37/134/52 57/135/53 56/133/51
f 37/134/52 38/136/54 58/137/55 57/135/53
f 38/34/54 39/32/56 59/33/57 58/35/55
f 39/32/56 40/30/58 60/31/59 59/33/57
f 40/30/58 41/28/60 61/29/61 60/31/59
f 41/28/60 22/22/22 42/25/25 61/29/61
s 2
f 42/78/62 43/79/63 63/80/64 62/81/65
f 43/79/63 44/82/66 64/83/67 63/80/64
f 44/82/66 45/86/68 65/87/69 64/83/67
f 45/86/68 46/90/70 66/91/71 65/87/69
f 46/90/70 47/94/72 67/95/73 66/91/71
f 47/94/72 48/98/74 68/99/75 67/95/73
f 48/98/74 49/102/76 69/103/77 68/99/75
f 49/102/76 50/106/78 70/107/79 69/103/77
f 50/106/78 51/110/80 71/111/81 70/107/79
f 51/110/80 52/114/82 72/115/83 71/111/81
f 52/114/82 53/116/84 73/117/85 72/115/83
f 53/116/84 54/112/86 74/113/87 73/117/85
f 54/112/86 55/108/88 75/109/89 74/113/87
f 55/108/88 56/104/90 76/105/91 75/109/89
f 56/104/90 57/100/92 77/101/93 76/105/91
f 57/100/92 58/96/94 78/97/95 77/101/93
f 58/96/94 59/92/96 79/93/97 78/97/95
f 59/92/96 60/88/98 80/89/99 79/93/97
f 60/88/98 61/84/100 81/85/101 80/89/99
f 61/84/100 42/78/62 62/81/65 81/85/101
s 3
f 62/50/102 63/51/103 83/52/104 82/53/105
f 63/51/103 64/54/106 84/55/107 83/52/104
f 64/138/106 65/139/108 85/140/109 84/141/107
f 65/139/108 66/142/110 86/143/111 85/140/109
f 66/142/110 67/144/112 87/145/113 86/143/111
f 67/144/112 68/146/114 88/147/115 87/145/113
f 68/70/114 69/64/116 89/67/117 88/71/115
f 69/64/116 70/65/118 90/66/119 89/67/117
f 70/65/118 71/68/120 91/69/121 90/66/119
f 71/68/120 72/72/122 92/73/123 91/69/121
f 72/72/122 73/74/124 93/75/125 92/73/123
f 73/74/124 74/76/126 94/77/127 93/75/125
f 74/148/126 75/149/128 95/150/129 94/151/127
f 75/149/128 76/152/130 96/153/131 95/150/129
f 76/152/130 77/154/132 97/155/133 96/153/131
f 77/154/132 78/156/134 98/157/135 97/155/133
f 78/62/134 79/60/136 99/61/137 98/63/135
f 79/60/136 80/58/138 100/59/139 99/61/137
f 80/58/138 81/56/140 101/57/141 100/59/139
f 81/56/140 62/50/102 82/53/105 101/57/141
